<svg xmlns="http://www.w3.org/2000/svg" width="180" height="180" viewBox="0 0 180 180">
  <g id="undraw_no_data_re_kwbl" transform="translate(-0.001 -0.004)">
    <path id="Path_1" data-name="Path 1" d="M418.719,194.565h-48.5a4.226,4.226,0,0,0-4.169,4.271V309.27l-.556.174-11.9,3.733a2.216,2.216,0,0,1-2.776-1.512L315.424,193.23a2.289,2.289,0,0,1,1.476-2.844l18.335-5.752,53.155-16.668,18.335-5.752a2.173,2.173,0,0,1,1.694.165,2.263,2.263,0,0,1,1.083,1.344L418.549,194Z" transform="translate(-304.446 -154.081)" fill="#f2f2f2"/>
    <path id="Path_2" data-name="Path 2" d="M401.038,173.828l-10.9-36.486a4.7,4.7,0,0,0-5.9-3.212l-25.778,8.084L305.3,158.885l-25.778,8.086a4.867,4.867,0,0,0-3.135,6.045L313.656,297.71a4.747,4.747,0,0,0,4.519,3.425,4.564,4.564,0,0,0,1.381-.214l17.671-5.541.556-.177v-.6l-.556.174-17.835,5.6a4.156,4.156,0,0,1-5.206-2.833l-37.263-124.7a4.359,4.359,0,0,1,.3-3.254,4.188,4.188,0,0,1,2.463-2.079l25.778-8.086,53.152-16.668,25.778-8.086a4.12,4.12,0,0,1,1.226-.188,4.186,4.186,0,0,1,3.98,3.021l10.853,36.321.172.569h.578Z" transform="translate(-276.182 -133.913)" fill="#3f3d56"/>
    <path id="Path_3" data-name="Path 3" d="M383.058,180.238a2.514,2.514,0,0,1-2.393-1.813l-3.58-11.979a2.574,2.574,0,0,1,1.66-3.2l48.9-15.337a2.494,2.494,0,0,1,3.124,1.7l3.58,11.979a2.577,2.577,0,0,1-1.659,3.2l-48.9,15.337a2.439,2.439,0,0,1-.731.112Z" transform="translate(-348.96 -143.841)" class="brand-bg"/>
    <ellipse id="Ellipse_1" data-name="Ellipse 1" cx="5.559" cy="5.695" rx="5.559" ry="5.695" transform="translate(47.292 1.413)" class="brand-bg"/>
    <ellipse id="Ellipse_2" data-name="Ellipse 2" cx="3.52" cy="3.606" rx="3.52" ry="3.606" transform="translate(49.331 3.502)" fill="#fff"/>
    <path id="Path_4" data-name="Path 4" d="M628.623,414.244H534.681a2.4,2.4,0,0,1-2.362-2.42V296.507a2.4,2.4,0,0,1,2.362-2.42h93.942a2.4,2.4,0,0,1,2.362,2.42V411.824A2.4,2.4,0,0,1,628.623,414.244Z" transform="translate(-461.128 -248.478)" fill="#e6e6e6"/>
    <path id="Path_5" data-name="Path 5" d="M559.048,274.087H500.543a4.79,4.79,0,0,0-4.725,4.84V395.042l.556-.174V278.927a4.226,4.226,0,0,1,4.169-4.271h58.678Zm51,0H500.543a4.79,4.79,0,0,0-4.725,4.84V409.335a4.79,4.79,0,0,0,4.725,4.84H610.049a4.791,4.791,0,0,0,4.725-4.84V278.927a4.791,4.791,0,0,0-4.725-4.84Zm4.169,135.248a4.226,4.226,0,0,1-4.169,4.271H500.543a4.226,4.226,0,0,1-4.169-4.271V278.927a4.226,4.226,0,0,1,4.169-4.271H610.049a4.226,4.226,0,0,1,4.169,4.271Z" transform="translate(-434.773 -234.172)" fill="#3f3d56"/>
    <path id="Path_6" data-name="Path 6" d="M662.46,273.74H611.32a2.535,2.535,0,0,1-2.5-2.563V258.65a2.535,2.535,0,0,1,2.5-2.563h51.14a2.535,2.535,0,0,1,2.5,2.563v12.528a2.535,2.535,0,0,1-2.5,2.563Z" transform="translate(-516.366 -221.297)" class="brand-bg"/>
    <ellipse id="Ellipse_3" data-name="Ellipse 3" cx="5.559" cy="5.695" rx="5.559" ry="5.695" transform="translate(114.965 24.254)" class="brand-bg"/>
    <ellipse id="Ellipse_4" data-name="Ellipse 4" cx="3.386" cy="3.469" rx="3.386" ry="3.469" transform="translate(117.138 26.48)" fill="#fff"/>
  </g>
</svg>
