<svg xmlns="http://www.w3.org/2000/svg" xmlns:xlink="http://www.w3.org/1999/xlink" width="79" height="92.979" viewBox="0 0 79 92.979">

  <g id="Group_80" data-name="Group 80"  class="svg-fill-brand" >
    <path id="Path_26" data-name="Path 26" d="M36.435,0H42.6c.811.09,1.622.186,2.433.268a177.815,177.815,0,0,1,26.55,5.12,9.638,9.638,0,0,1,6.936,6.553c.191.544.32,1.109.477,1.665V39.172c-.166,1.149-.318,2.3-.5,3.446a52.993,52.993,0,0,1-8.673,21.132,103.33,103.33,0,0,1-23.555,24.49C44.136,89.88,41.91,91.4,39.725,92.98h-.411a6.045,6.045,0,0,0-.5-.465c-4.029-3.02-8.212-5.855-12.061-9.089a87.025,87.025,0,0,1-19.8-23.09C2.879,53.274.235,45.738.081,37.518-.06,29.961.02,22.4.052,14.841A9.759,9.759,0,0,1,7.016,5.53c1.406-.427,2.835-.8,4.276-1.091C17.53,3.19,23.77,1.943,30.025.782,32.138.389,34.3.254,36.435,0M72.281,26.617h.14q0-5.41,0-10.822c0-2.68-.693-3.675-3.342-4.23C62.048,10.091,55.019,8.6,47.953,7.316a46.437,46.437,0,0,0-13.618-.43A198.35,198.35,0,0,0,9.649,11.621c-2.228.546-3.028,1.585-3.028,3.866,0,6.527.065,13.056-.019,19.582a39.886,39.886,0,0,0,4.553,19.023c6.5,12.638,16.2,22.363,27.8,30.3a1.238,1.238,0,0,0,1.131-.028c2.17-1.559,4.372-3.088,6.423-4.8,8.1-6.747,15.172-14.4,20.327-23.683,2.907-5.237,5.064-10.771,5.4-16.809.23-4.142.044-8.307.044-12.462" transform="translate(0 -0.001)" />
    <path id="Path_27" data-name="Path 27" d="M51.9,72.016,79.9,43.946l4.524,4.529L51.963,81.024,32.571,61.582l4.484-4.507L51.9,72.016" transform="translate(-16.458 -22.206)" />
  </g>
</svg>
