<svg id="Group_89" data-name="Group 89" xmlns="http://www.w3.org/2000/svg" xmlns:xlink="http://www.w3.org/1999/xlink" width="94.617" height="87.817" viewBox="0 0 94.617 87.817">
  <defs>
  
  </defs>
  <g id="Group_82" data-name="Group 82"  class="svg-fill-brand">
    <path id="Path_28" data-name="Path 28" d="M65.906,96.1a10.107,10.107,0,0,0,8.609,4.626c6.052.021,12.1-.008,18.154.03a2.937,2.937,0,0,1,1.615.539c3.6,2.644,7.161,5.339,10.735,8.016,2.129,1.594,4.259,3.185,6.577,4.919v-13.5c3.29,0,6.451,0,9.611,0,6.282-.01,10.625-4.332,10.637-10.592q.012-6.49,0-12.98c0-6.86.041-13.72-.022-20.579-.044-4.838-3.627-9.191-8.374-9.648-3.89-.374-7.844-.076-11.876-.076v1.055q0,11.081,0,22.162a16.88,16.88,0,0,1-17.1,17.145c-3.9.013-7.81.008-11.715.02-1.688,0-3.5-.349-5.027.154-1.489.49-2.686,1.865-4.011,2.851-.085.063-.172.123-.256.186L65.906,96.1" transform="translate(-37.241 -26.414)" />
    <path id="Path_29" data-name="Path 29" d="M58.917,0c.626.2,1.26.376,1.878.6a10.021,10.021,0,0,1,6.763,9.4q.055,17.038,0,34.075a10.063,10.063,0,0,1-10.075,9.969c-6.084.047-12.169,0-18.253.038a3.1,3.1,0,0,0-1.708.578C32.092,58.668,26.7,62.723,21.291,66.766c-.275.206-.564.394-1,.694V54.05H19.074q-4.168,0-8.336,0c-5.524,0-9.289-3-10.574-8.4A.942.942,0,0,0,0,45.394V8.657c.077-.224.172-.442.228-.671A9.947,9.947,0,0,1,5.352,1.251,26.641,26.641,0,0,1,8.658,0ZM26.989,54.041c2.915-2.182,5.569-4.2,8.271-6.158a3.143,3.143,0,0,1,1.712-.564c6.684-.039,13.367-.022,20.051-.027,2.474,0,3.792-1.307,3.793-3.763q.007-16.513,0-33.025c0-2.406-1.322-3.745-3.7-3.746q-23.322-.007-46.644,0c-2.386,0-3.706,1.336-3.707,3.743q-.007,16.513,0,33.025c0,2.459,1.317,3.763,3.791,3.766q7.6.008,15.2,0h1.242Z" />
    <path id="Path_30" data-name="Path 30" d="M65.906,96.1l7.553-5.672c.084-.063.171-.123.256-.186,1.325-.986,2.523-2.361,4.011-2.851,1.527-.5,3.339-.149,5.027-.154,3.905-.011,7.811-.007,11.715-.02a16.88,16.88,0,0,0,17.1-17.145q.02-11.081,0-22.162V46.858c4.031,0,7.986-.3,11.876.076,4.747.457,8.329,4.81,8.374,9.648.063,6.859.021,13.719.022,20.579q0,6.49,0,12.98c-.012,6.26-4.355,10.582-10.637,10.592-3.161.005-6.321,0-9.611,0v13.5c-2.318-1.733-4.448-3.325-6.577-4.919-3.574-2.677-7.136-5.372-10.735-8.016a2.937,2.937,0,0,0-1.615-.539c-6.051-.037-12.1-.008-18.154-.03A10.107,10.107,0,0,1,65.906,96.1" transform="translate(-37.241 -26.414)" />
  </g>
</svg>
