<svg id="Group_75" data-name="Group 75" xmlns="http://www.w3.org/2000/svg" xmlns:xlink="http://www.w3.org/1999/xlink" width="78.345" height="92.352" viewBox="0 0 78.345 92.352">

  <g id="Group_74" data-name="Group 74" class="svg-fill-brand">
    <path id="Path_19" data-name="Path 19" d="M42.056,92.351H36.271c-1.345-.213-2.692-.412-4.034-.64A39.166,39.166,0,0,1,1.1,62.362C.638,60.319.363,58.233,0,56.167V50.4c.065-.285.156-.565.192-.853C2.233,33.628,10.769,22.664,25.639,16.709c3.12-1.25,6.531-1.777,9.879-2.657V7.108c-1.121,0-2.157.006-3.193,0a3.561,3.561,0,1,1-.041-7.1q6.9-.015,13.793,0a3.557,3.557,0,1,1,0,7.1c-1.1.011-2.194,0-3.3,0v7.265a39.66,39.66,0,0,1,21.541,8.993,11.558,11.558,0,0,1,.759-.95q3.489-3.5,6.994-6.989a3.552,3.552,0,1,1,5.131,4.9c-2.619,2.665-5.3,5.272-7.968,7.918.229.313.4.553.574.784A38.394,38.394,0,0,1,77.682,60.2a39.149,39.149,0,0,1-29.2,31.012c-2.114.5-4.282.766-6.424,1.14m-2.9-71.035A31.965,31.965,0,1,0,71.206,53.273,31.958,31.958,0,0,0,39.157,21.316" transform="translate(0 0)" />
    <path id="Path_20" data-name="Path 20" d="M67.56,62.43c0-3.477.008-6.953,0-10.43a3.567,3.567,0,1,0-7.115.041q-.011,10.375,0,20.75a3.562,3.562,0,0,0,3.523,3.875c2.129.015,3.587-1.563,3.593-3.916.009-3.44,0-6.88,0-10.319" transform="translate(-24.836 -19.804)" />
    <path id="Path_21" data-name="Path 21" d="M67.56,62.43c0,3.44.006,6.88,0,10.319-.005,2.353-1.464,3.931-3.593,3.916a3.562,3.562,0,0,1-3.523-3.875q-.011-10.375,0-20.75A3.567,3.567,0,1,1,67.557,52c.011,3.477,0,6.954,0,10.43" transform="translate(-24.836 -19.804)" />
  </g>
</svg>
