<svg xmlns="http://www.w3.org/2000/svg" xmlns:xlink="http://www.w3.org/1999/xlink" width="83.308" height="99.969" viewBox="0 0 83.308 99.969">

  <g id="Group_76" data-name="Group 76" class="svg-fill-brand" >
    <path id="Path_22" data-name="Path 22" d="M83.308,10.674V89.3c-.1.274-.211.545-.282.825a12.557,12.557,0,0,1-8.442,9.257c-.64.225-1.3.4-1.95.592H10.674c-.4-.133-.793-.284-1.2-.4a12.459,12.459,0,0,1-8.84-8.2C.388,90.69.21,89.986,0,89.3V10.674c.095-.275.212-.545.28-.827A12.27,12.27,0,0,1,6.6,1.543,32.993,32.993,0,0,1,10.674,0h61.96a6.243,6.243,0,0,0,.7.256A12.5,12.5,0,0,1,82.669,8.6c.247.678.427,1.38.638,2.071M74.977,50.12q0-18.479,0-36.958c0-3.24-1.561-4.829-4.751-4.829q-28.565,0-57.13,0c-3.2,0-4.762,1.584-4.763,4.819q0,36.829,0,73.656c0,3.294,1.555,4.83,4.882,4.831H70.083c3.375,0,4.892-1.537,4.892-4.949q0-18.285,0-36.569" transform="translate(0 0)" />
    <rect id="Rectangle_33" data-name="Rectangle 33" width="49.865" height="8.169" transform="translate(16.719 16.731)" />
    <rect id="Rectangle_34" data-name="Rectangle 34" width="16.498" height="8.173" transform="translate(50.088 41.744)" />
    <rect id="Rectangle_35" data-name="Rectangle 35" width="16.498" height="8.173" transform="translate(50.044 58.382)" />
    <rect id="Rectangle_36" data-name="Rectangle 36" width="16.498" height="8.171" transform="translate(50.078 75.034)" />
    <rect id="Rectangle_37" data-name="Rectangle 37" width="8.169" height="8.169" transform="translate(16.754 41.711)" />
    <rect id="Rectangle_38" data-name="Rectangle 38" width="8.169" height="8.177" transform="translate(33.422 41.742)" />
    <rect id="Rectangle_39" data-name="Rectangle 39" width="8.172" height="8.169" transform="translate(16.729 58.417)" />
    <rect id="Rectangle_40" data-name="Rectangle 40" width="8.173" height="8.169" transform="translate(33.413 58.374)" />
    <rect id="Rectangle_41" data-name="Rectangle 41" width="8.216" height="8.161" transform="translate(16.715 75.05)" />
    <rect id="Rectangle_42" data-name="Rectangle 42" width="8.167" height="8.169" transform="translate(33.416 75.033)" />
  </g>
</svg>
