<svg id="Group_50" data-name="Group 50" xmlns="http://www.w3.org/2000/svg" xmlns:xlink="http://www.w3.org/1999/xlink"
    width="51.237" height="41.147" viewBox="0 0 51.237 41.147">
    <g id="Group_48" data-name="Group 48">
        <path id="Path_12" data-name="Path 12"
            d="M25.651,22.759,8.169,40.24a3.072,3.072,0,0,1-4.358,0L.906,37.335a3.072,3.072,0,0,1,0-4.358L13.3,20.586.906,8.195a3.072,3.072,0,0,1,0-4.358L3.8.906a3.072,3.072,0,0,1,4.358,0L25.638,18.388a3.076,3.076,0,0,1,.013,4.37m24.68-4.37L32.849.906a3.072,3.072,0,0,0-4.358,0L25.586,3.811a3.072,3.072,0,0,0,0,4.358L37.978,20.56,25.586,32.952a3.072,3.072,0,0,0,0,4.358l2.905,2.905a3.072,3.072,0,0,0,4.358,0L50.331,22.733A3.057,3.057,0,0,0,50.331,18.388Z"
            transform="translate(0 0)" fill="#fff" />
    </g>
</svg>