<svg xmlns="http://www.w3.org/2000/svg" xmlns:xlink="http://www.w3.org/1999/xlink" width="20" height="15"
    viewBox="0 0 20 15">
    <g id="Group_45" data-name="Group 45" class="main-style" fill="#3b4051">
        <path id="Path_11" data-name="Path 11"
            d="M19.621,4.953A.235.235,0,0,1,20,5.137v7.988A1.875,1.875,0,0,1,18.125,15H1.875A1.875,1.875,0,0,1,0,13.125V5.141a.234.234,0,0,1,.379-.184c.875.68,2.035,1.543,6.02,4.438.824.6,2.215,1.867,3.6,1.859,1.395.012,2.813-1.281,3.605-1.859C17.59,6.5,18.746,5.633,19.621,4.953M10,10c.906.016,2.211-1.141,2.867-1.617,5.184-3.762,5.578-4.09,6.773-5.027A.935.935,0,0,0,20,2.617V1.875A1.875,1.875,0,0,0,18.125,0H1.875A1.875,1.875,0,0,0,0,1.875v.742a.94.94,0,0,0,.359.738c1.2.934,1.59,1.266,6.773,5.027C7.789,8.859,9.094,10.016,10,10Z"
             />
    </g>
</svg>