<svg id="Group_42" data-name="Group 42" xmlns="http://www.w3.org/2000/svg" xmlns:xlink="http://www.w3.org/1999/xlink"
    width="16" height="16" viewBox="0 0 16 16">
    <g id="Group_41" data-name="Group 41" class="main-style" fill="#3b4051">
        <path id="Path_10" data-name="Path 10"
            d="M15.418.769l-3.25-.75a.755.755,0,0,0-.859.434l-1.5,3.5a.748.748,0,0,0,.216.875l1.894,1.55a11.581,11.581,0,0,1-5.537,5.537l-1.55-1.894a.749.749,0,0,0-.875-.216l-3.5,1.5a.759.759,0,0,0-.437.862l.75,3.25A.75.75,0,0,0,1.5,16,14.5,14.5,0,0,0,16,1.5a.749.749,0,0,0-.581-.731"
            transform="translate(0 0)"  />
    </g>
</svg>