<svg class="" xmlns="http://www.w3.org/2000/svg" width="63.806" height="61.141" viewBox="0 0 63.806 61.141">
  <g id="Group_110" data-name="Group 110" class="star" transform="translate(0.534 0.5)">
    <path id="Path_36" data-name="Path 36"
      d="M28,2.09,20.347,17.628l-17.133,2.5a3.758,3.758,0,0,0-2.076,6.408l12.4,12.088L10.6,55.7a3.751,3.751,0,0,0,5.441,3.955L31.37,51.59,46.7,59.653A3.754,3.754,0,0,0,52.138,55.7L49.206,38.623,61.6,26.535a3.758,3.758,0,0,0-2.076-6.408l-17.133-2.5L34.735,2.09A3.755,3.755,0,0,0,28,2.09Z"
      transform="translate(-0.001 0.001)" stroke-width="1" />
  </g>
</svg>