<svg xmlns="http://www.w3.org/2000/svg" xmlns:xlink="http://www.w3.org/1999/xlink" width="124.946" height="20.063" viewBox="0 0 124.946 20.063">
  <defs>
    <clipPath id="clip-path">
      <rect id="Rectangle_62" data-name="Rectangle 62" width="20.962" height="20.063" fill="#e8e013"/>
    </clipPath>
  </defs>
  <g id="Group_115" data-name="Group 115" transform="translate(-341 -3227.594)">
    <g id="Group_110" data-name="Group 110" transform="translate(341 3227.594)">
      <g id="Group_109" data-name="Group 109" clip-path="url(#clip-path)">
        <path id="Path_36" data-name="Path 36" d="M9.357.7,6.8,5.885l-5.724.835A1.254,1.254,0,0,0,.381,8.859l4.141,4.036-.98,5.7a1.253,1.253,0,0,0,1.818,1.32l5.121-2.692L15.6,19.915a1.254,1.254,0,0,0,1.818-1.32l-.98-5.7,4.141-4.036a1.254,1.254,0,0,0-.694-2.139l-5.724-.835L11.606.7A1.255,1.255,0,0,0,9.357.7Z" transform="translate(-0.001 0.001)" fill="#e8e013"/>
      </g>
    </g>
    <g id="Group_111" data-name="Group 111" transform="translate(366.996 3227.594)">
      <g id="Group_109-2" data-name="Group 109" clip-path="url(#clip-path)">
        <path id="Path_36-2" data-name="Path 36" d="M9.357.7,6.8,5.885l-5.724.835A1.254,1.254,0,0,0,.381,8.859l4.141,4.036-.98,5.7a1.253,1.253,0,0,0,1.818,1.32l5.121-2.692L15.6,19.915a1.254,1.254,0,0,0,1.818-1.32l-.98-5.7,4.141-4.036a1.254,1.254,0,0,0-.694-2.139l-5.724-.835L11.606.7A1.255,1.255,0,0,0,9.357.7Z" transform="translate(-0.001 0.001)" fill="#e8e013"/>
      </g>
    </g>
    <g id="Group_112" data-name="Group 112" transform="translate(392.992 3227.594)">
      <g id="Group_109-3" data-name="Group 109" clip-path="url(#clip-path)">
        <path id="Path_36-3" data-name="Path 36" d="M9.357.7,6.8,5.885l-5.724.835A1.254,1.254,0,0,0,.381,8.859l4.141,4.036-.98,5.7a1.253,1.253,0,0,0,1.818,1.32l5.121-2.692L15.6,19.915a1.254,1.254,0,0,0,1.818-1.32l-.98-5.7,4.141-4.036a1.254,1.254,0,0,0-.694-2.139l-5.724-.835L11.606.7A1.255,1.255,0,0,0,9.357.7Z" transform="translate(-0.001 0.001)" fill="#e8e013"/>
      </g>
    </g>
    <g id="Group_113" data-name="Group 113" transform="translate(418.988 3227.594)">
      <g id="Group_109-4" data-name="Group 109" clip-path="url(#clip-path)">
        <path id="Path_36-4" data-name="Path 36" d="M9.357.7,6.8,5.885l-5.724.835A1.254,1.254,0,0,0,.381,8.859l4.141,4.036-.98,5.7a1.253,1.253,0,0,0,1.818,1.32l5.121-2.692L15.6,19.915a1.254,1.254,0,0,0,1.818-1.32l-.98-5.7,4.141-4.036a1.254,1.254,0,0,0-.694-2.139l-5.724-.835L11.606.7A1.255,1.255,0,0,0,9.357.7Z" transform="translate(-0.001 0.001)" fill="#e8e013"/>
      </g>
    </g>
    <g id="Group_114" data-name="Group 114" transform="translate(444.984 3227.594)">
      <g id="Group_109-5" data-name="Group 109" clip-path="url(#clip-path)">
        <path id="Path_36-5" data-name="Path 36" d="M9.357.7,6.8,5.885l-5.724.835A1.254,1.254,0,0,0,.381,8.859l4.141,4.036-.98,5.7a1.253,1.253,0,0,0,1.818,1.32l5.121-2.692L15.6,19.915a1.254,1.254,0,0,0,1.818-1.32l-.98-5.7,4.141-4.036a1.254,1.254,0,0,0-.694-2.139l-5.724-.835L11.606.7A1.255,1.255,0,0,0,9.357.7Z" transform="translate(-0.001 0.001)" fill="#e8e013"/>
      </g>
    </g>
  </g>
</svg>
