<svg xmlns="http://www.w3.org/2000/svg" xmlns:xlink="http://www.w3.org/1999/xlink" width="20.063" height="20.063"
  viewBox="0 0 20.063 20.063">
  <g id="Group_109" data-name="Group 109" >
    <path id="Path_36" data-name="Path 36"
      d="M9.357.7,6.8,5.885l-5.724.835A1.254,1.254,0,0,0,.381,8.859l4.141,4.036-.98,5.7a1.253,1.253,0,0,0,1.818,1.32l5.121-2.692L15.6,19.915a1.254,1.254,0,0,0,1.818-1.32l-.98-5.7,4.141-4.036a1.254,1.254,0,0,0-.694-2.139l-5.724-.835L11.606.7A1.255,1.255,0,0,0,9.357.7Z"
      transform="translate(-0.001 0.001)" class="star-item" fill="#e8e013" />
  </g>
</svg>