 <svg id="Group_91" data-name="Group 91" xmlns="http://www.w3.org/2000/svg"
                        xmlns:xlink="http://www.w3.org/1999/xlink" width="18.997" height="19" viewBox="0 0 18.997 19">
                        <g id="Group_90" data-name="Group 90">
                            <path id="Path_31" data-name="Path 31"
                                d="M18.738,16.427l-3.7-3.7a.89.89,0,0,0-.631-.26h-.6A7.714,7.714,0,1,0,12.468,13.8v.6a.89.89,0,0,0,.26.631l3.7,3.7a.887.887,0,0,0,1.258,0l1.05-1.05a.9.9,0,0,0,0-1.262M7.718,12.468a4.75,4.75,0,1,1,4.75-4.75,4.747,4.747,0,0,1-4.75,4.75"
                                fill="#fff" />
                        </g>
                    </svg>