<svg xmlns="http://www.w3.org/2000/svg" xmlns:xlink="http://www.w3.org/1999/xlink" width="90" height="62.999" viewBox="0 0 90 70">
  <defs>
    <clipPath id="clip-path">
      <rect id="Rectangle_122" data-name="Rectangle 122" width="90" height="62.999" fill="none"/>
    </clipPath>
  </defs>
  <g id="Group_192" data-name="Group 192" transform="translate(0 0)">
    <g id="Group_191" data-name="Group 191" transform="translate(0 0)" clip-path="url(#clip-path)">
      <path id="Path_63" data-name="Path 63" d="M87.349,3.159A41.651,41.651,0,0,0,70.98,0C53.659,0,36.34,8.766,19.019,8.766A42.679,42.679,0,0,1,5.991,6.837a4.839,4.839,0,0,0-1.456-.228A4.475,4.475,0,0,0,0,11.083V55.7A4.472,4.472,0,0,0,2.649,59.84,41.62,41.62,0,0,0,19.019,63c17.321,0,34.641-8.768,51.962-8.768a42.637,42.637,0,0,1,13.028,1.931,4.829,4.829,0,0,0,1.456.226A4.474,4.474,0,0,0,90,51.915V7.3A4.477,4.477,0,0,0,87.349,3.159ZM6.75,14.094a48.991,48.991,0,0,0,8.82,1.256A9.011,9.011,0,0,1,6.75,22.6Zm0,40.078v-6.72a9,9,0,0,1,8.959,8.634A33.955,33.955,0,0,1,6.75,54.171M45,45C38.786,45,33.75,38.954,33.75,31.5S38.787,18,45,18s11.25,6.045,11.25,13.5S51.21,45,45,45m38.25,3.906a48.376,48.376,0,0,0-7.638-1.187,8.982,8.982,0,0,1,7.638-6.93Zm0-33.2A8.984,8.984,0,0,1,75.4,7.048a33.866,33.866,0,0,1,7.849,1.781Z" transform="translate(0 0)" fill="#d5d5d5"/>
    </g>
  </g>
</svg>
