<svg id="Group_103" data-name="Group 103" xmlns="http://www.w3.org/2000/svg" xmlns:xlink="http://www.w3.org/1999/xlink" width="130" height="108.065" viewBox="0 0 130 108.065">

  <g id="Group_102" data-name="Group 102">
    <path id="Path_35" data-name="Path 35" d="M127.049,25.032l-13.7-21.866A6.757,6.757,0,0,0,107.631,0H22.361a6.757,6.757,0,0,0-5.72,3.166L2.943,25.032c-7.071,11.292-.8,27,12.411,28.789a21.935,21.935,0,0,0,2.892.19,20.841,20.841,0,0,0,15.577-6.986,20.858,20.858,0,0,0,31.153,0,20.858,20.858,0,0,0,31.153,0A20.91,20.91,0,0,0,111.7,54.011a21.7,21.7,0,0,0,2.892-.19c13.255-1.773,19.545-17.476,12.453-28.789m-15.3,35.754a26.78,26.78,0,0,1-6.226-.8V81.049H24.472V59.984a27.961,27.961,0,0,1-6.226.8,28.478,28.478,0,0,1-3.8-.253,26.544,26.544,0,0,1-3.461-.76v41.537a6.747,6.747,0,0,0,6.754,6.754H112.3a6.747,6.747,0,0,0,6.754-6.754V59.773a21.55,21.55,0,0,1-3.461.76A29.351,29.351,0,0,1,111.747,60.786Z" transform="translate(0)" fill="#9c9d9f"/>
  </g>
</svg>
