<svg xmlns="http://www.w3.org/2000/svg" xmlns:xlink="http://www.w3.org/1999/xlink" width="130" height="115.946" viewBox="0 0 130 115.946">

  <g id="Group_100" data-name="Group 100" >
    <path id="Path_34" data-name="Path 34" d="M124.856,14.476H101.333V5.429A5.416,5.416,0,0,0,95.9,0H34.381a5.416,5.416,0,0,0-5.429,5.429v9.048H5.429A5.416,5.416,0,0,0,0,19.9V32.571c0,8.075,5.089,16.376,14,22.777A52.99,52.99,0,0,0,38.882,64.78c7.1,11.784,15.4,16.647,15.4,16.647V97.714H43.428c-7.984,0-14.476,4.682-14.476,12.667v2.714a2.722,2.722,0,0,0,2.714,2.714H98.618a2.722,2.722,0,0,0,2.714-2.714V110.38c0-7.984-6.492-12.667-14.476-12.667H76V81.428s8.3-4.863,15.4-16.647a52.808,52.808,0,0,0,24.881-9.432c8.889-6.4,14-14.7,14-22.777V19.9a5.416,5.416,0,0,0-5.429-5.429M22.461,43.609c-5.519-3.981-7.984-8.414-7.984-11.038V28.952H29a81.239,81.239,0,0,0,2.9,19.5,36.451,36.451,0,0,1-9.432-4.84m93.348-11.038c0,3.642-4,8.165-7.984,11.038a36.594,36.594,0,0,1-9.455,4.84,81.239,81.239,0,0,0,2.9-19.5h14.544Z" transform="translate(-0.285)" fill="#919295"/>
  </g>
</svg>
