<svg xmlns="http://www.w3.org/2000/svg" xmlns:xlink="http://www.w3.org/1999/xlink" width="130" height="104" viewBox="0 0 130 104">
  <g id="Group_99" data-name="Group 99" transform="translate(-10 -12.216)">
    <g id="Group_98" data-name="Group 98" transform="translate(10 12.216)">
      <path id="Path_33" data-name="Path 33" d="M118.7,40.138l-3.042-7.6L110.267,19.05A30.16,30.16,0,0,0,82.127,0H47.761a30.163,30.163,0,0,0-28.14,19.05L14.228,32.534l-3.042,7.6A17.281,17.281,0,0,0,0,56.285V69.274A17.177,17.177,0,0,0,4.33,80.62V95.252a8.66,8.66,0,0,0,8.659,8.659h8.659a8.66,8.66,0,0,0,8.659-8.659V86.592H99.581v8.659a8.66,8.66,0,0,0,8.659,8.659H116.9a8.66,8.66,0,0,0,8.659-8.659V80.62a17.167,17.167,0,0,0,4.33-11.346V56.285A17.281,17.281,0,0,0,118.7,40.138m-83-14.656a12.99,12.99,0,0,1,12.061-8.164H82.127a12.99,12.99,0,0,1,12.061,8.164l5.393,13.484H30.307ZM21.648,69.22c-5.2,0-8.659-3.453-8.659-8.632s3.464-8.632,8.659-8.632S34.637,59.724,34.637,64.9,26.844,69.22,21.648,69.22Zm86.592,0c-5.2,0-12.989.863-12.989-4.316s7.793-12.948,12.989-12.948,8.659,3.453,8.659,8.632-3.464,8.632-8.659,8.632" transform="translate(0 -0.181)" fill="#a5a5a5"/>
    </g>
  </g>
</svg>
