<svg xmlns="http://www.w3.org/2000/svg" xmlns:xlink="http://www.w3.org/1999/xlink" width="150" height="105" viewBox="0 0 150 105">
  <g id="Group_92" data-name="Group 92" >
    <path id="Path_32" data-name="Path 32" d="M22.5,45a15,15,0,1,0-15-15,15.014,15.014,0,0,0,15,15m105,0a15,15,0,1,0-15-15,15.014,15.014,0,0,0,15,15m7.5,7.5H120a14.956,14.956,0,0,0-10.57,4.359,34.283,34.283,0,0,1,17.6,25.641H142.5A7.492,7.492,0,0,0,150,75V67.5a15.014,15.014,0,0,0-15-15m-60,0A26.25,26.25,0,1,0,48.75,26.25,26.237,26.237,0,0,0,75,52.5M93,60H91.055a36.242,36.242,0,0,1-32.109,0H57A27.007,27.007,0,0,0,30,87v6.75A11.253,11.253,0,0,0,41.25,105h67.5A11.253,11.253,0,0,0,120,93.75V87A27.007,27.007,0,0,0,93,60M40.57,56.859A14.956,14.956,0,0,0,30,52.5H15a15.014,15.014,0,0,0-15,15V75a7.492,7.492,0,0,0,7.5,7.5H22.945A34.369,34.369,0,0,1,40.57,56.859Z" fill="#9b9b9b"/>
  </g>
</svg>
