<svg xmlns="http://www.w3.org/2000/svg" xmlns:xlink="http://www.w3.org/1999/xlink" width="51" height="51"
    viewBox="0 0 51 51">
    <g id="Group_138" data-name="Group 138" transform="translate(0 0)">
        <g id="Group_41" data-name="Group 41" >
            <path id="Path_10" data-name="Path 10"
                d="M49.147,2.452,38.788.061a2.406,2.406,0,0,0-2.739,1.385L31.267,12.6a2.384,2.384,0,0,0,.687,2.789l6.036,4.941a36.916,36.916,0,0,1-17.65,17.65L15.4,31.945a2.388,2.388,0,0,0-2.789-.687L1.455,36.039A2.419,2.419,0,0,0,.06,38.788L2.451,49.147A2.39,2.39,0,0,0,4.782,51,46.213,46.213,0,0,0,51,4.782a2.388,2.388,0,0,0-1.853-2.331"
                transform="translate(0 0)" fill="#ccced1" />
        </g>
    </g>
</svg>