<svg id="Group_142" data-name="Group 142" xmlns="http://www.w3.org/2000/svg" xmlns:xlink="http://www.w3.org/1999/xlink"
    width="20.347" height="18" viewBox="0 0 20.347 18">
    <defs>
        <clipPath id="clip-path">
            <rect id="Rectangle_76" data-name="Rectangle 76" width="20.347" height="18" fill="#3b4051" />
        </clipPath>
    </defs>
    <g id="Group_141" data-name="Group 141" clip-path="url(#clip-path)">
        <path id="Path_40" data-name="Path 40"
            d="M20.347,4.5V16.072A1.918,1.918,0,0,1,18.439,18H1.908A1.919,1.919,0,0,1,0,16.072V4.5A1.919,1.919,0,0,1,1.908,2.571H5.4L5.894,1.25A1.906,1.906,0,0,1,7.678,0h4.987A1.906,1.906,0,0,1,14.45,1.25l.492,1.322h3.5A1.918,1.918,0,0,1,20.347,4.5m-5.4,5.786a4.769,4.769,0,1,0-4.769,4.821,4.8,4.8,0,0,0,4.769-4.821m-1.271,0a3.5,3.5,0,1,1-3.5-3.536,3.522,3.522,0,0,1,3.5,3.536"
            fill="#3b4051" />
    </g>
</svg>