<svg xmlns="http://www.w3.org/2000/svg" xmlns:xlink="http://www.w3.org/1999/xlink" width="19" height="18"
    viewBox="0 0 19 18">
    <defs>
        <clipPath id="clip-path">
            <rect id="Rectangle_75" data-name="Rectangle 75" width="19" height="18" transform="translate(0 -0.358)"
                fill="#444" />
        </clipPath>
    </defs>
    <g id="Group_140" data-name="Group 140" transform="translate(0 0.358)">
        <g id="Group_139" data-name="Group 139" clip-path="url(#clip-path)">
            <path id="Path_39" data-name="Path 39"
                d="M0,5.737V.93A.973.973,0,0,1,1.015,0H6.259a.489.489,0,0,1,.508.465V2.016a.489.489,0,0,1-.508.465H2.707V5.737A.489.489,0,0,1,2.2,6.2H.507A.489.489,0,0,1,0,5.737M12.18.465V2.016a.489.489,0,0,0,.508.465H16.24V5.737a.489.489,0,0,0,.508.465H18.44a.489.489,0,0,0,.508-.465V.93A.973.973,0,0,0,17.932,0H12.688a.489.489,0,0,0-.508.465m6.259,10.7H16.748a.489.489,0,0,0-.508.465v3.256H12.688a.489.489,0,0,0-.508.465V16.9a.489.489,0,0,0,.508.465h5.244a.973.973,0,0,0,1.015-.93V11.629a.489.489,0,0,0-.508-.465M6.767,16.9V15.351a.489.489,0,0,0-.508-.465H2.707V11.629a.489.489,0,0,0-.508-.465H.507A.489.489,0,0,0,0,11.629v4.807a.973.973,0,0,0,1.015.93H6.259a.489.489,0,0,0,.508-.465"
                fill="#444" />
        </g>
    </g>
</svg>